Coordinates
version=1
nRows=15
nColumns=46
inDegrees=yes

Units are S.I. units (second, meters, Newtons, ...)
Angles are in degrees.

endheader
time	pelvis_tilt	pelvis_list	pelvis_rotation	pelvis_tx	pelvis_ty	pelvis_tz	bb_angle	bb_tx	bb_ty	bb_tz	hip_flexion_r	hip_adduction_r	hip_rotation_r	knee_angle_r	knee_angle_r_beta	ankle_angle_r	subtalar_angle_r	mtp_angle_r	crank_angle_r	hip_flexion_l	hip_adduction_l	hip_rotation_l	knee_angle_l	knee_angle_l_beta	ankle_angle_l	subtalar_angle_l	mtp_angle_l	crank_angle_l	lumbar_extension	lumbar_bending	lumbar_rotation	arm_flex_r	arm_add_r	arm_rot_r	elbow_flex_r	pro_sup_r	wrist_flex_r	wrist_dev_r	arm_flex_l	arm_add_l	arm_rot_l	elbow_flex_l	pro_sup_l	wrist_flex_l	wrist_dev_l
      5.00000000	    -12.59165713	      0.52761164	      1.18268894	      0.12120976	      1.15525905	     -0.23261790	      0.00000000	      0.50000000	      0.00000000	      0.25000000	     44.39196564	     -9.01424547	    -11.25713263	     37.79906879	      0.65971820	     -3.16323715	      9.25526064	      0.00000000	      0.00000000	     86.33983802	    -13.78742198	      1.15277311	    113.69882211	      1.98441880	      4.03641165	      2.09200581	      0.00000000	      0.00000000	    -58.68116230	     -4.06078329	     -0.64635226	     89.48302924	    -26.27044787	     49.77191911	     53.13935336	     25.76221390	      0.00000000	      0.00000000	     89.76593265	    -21.14103428	     47.48915462	     54.89067594	     24.33336593	      0.00000000	      0.00000000
      5.00500000	    -12.45073399	      0.51343351	      1.38726904	      0.12155395	      1.15576485	     -0.23113219	      0.00000000	      0.50000000	      0.00000000	      0.25000000	     43.52921265	     -9.14916881	    -11.79956266	     37.62160817	      0.65662093	     -3.78209072	      9.45854706	      0.00000000	      0.00000000	     87.01007035	    -13.43285139	      1.40305155	    113.94534061	      1.98872136	      5.20257187	      1.84433628	      0.00000000	      0.00000000	    -58.81682550	     -4.38571577	     -0.85221908	     89.46480121	    -26.16202413	     49.83021604	     52.86605931	     25.75643828	      0.00000000	      0.00000000	     89.76809058	    -21.00363852	     47.33728627	     55.03944485	     24.34320303	      0.00000000	      0.00000000
      5.01000000	    -12.11049528	      0.40313747	      1.76749424	      0.12185779	      1.15683362	     -0.23012352	      0.00000000	      0.50000000	      0.00000000	      0.25000000	     42.44135048	     -9.38555094	    -12.64506350	     37.53249995	      0.65506570	     -4.45118602	      9.74584091	      0.00000000	      0.00000000	     87.42723378	    -12.87336903	      1.75622943	    114.05831275	      1.99069310	      6.36177352	      2.01735256	      0.00000000	      0.00000000	    -59.20826338	     -4.51412369	     -1.09698410	     89.48901088	    -25.99654080	     49.93705712	     52.21166144	     25.73902808	      0.00000000	      0.00000000	     89.77091584	    -20.79675480	     46.91167179	     55.29301501	     24.34029891	      0.00000000	      0.00000000
      5.01500000	    -12.02218904	      0.35471765	      1.85903406	      0.12197267	      1.15746369	     -0.22880559	      0.00000000	      0.50000000	      0.00000000	      0.25000000	     41.83131970	     -9.44102544	    -12.99729472	     37.69545854	      0.65790986	     -4.97806630	      9.85543457	      0.00000000	      0.00000000	     88.03006740	    -12.63156238	      1.91501967	    114.10220440	      1.99145915	      7.52985819	      1.75547055	      0.00000000	      0.00000000	    -59.34548927	     -4.86453134	     -1.20962139	     89.48586873	    -25.89793174	     49.92630957	     52.01107946	     25.74124564	      0.00000000	      0.00000000	     89.77442480	    -20.63884891	     46.72802204	     55.43867526	     24.34335046	      0.00000000	      0.00000000
      5.02000000	    -11.92068530	      0.28438151	      2.06478198	      0.12199320	      1.15824298	     -0.22751826	      0.00000000	      0.50000000	      0.00000000	      0.25000000	     41.26724802	     -9.54363021	    -13.35583112	     38.03858821	      0.66389861	     -5.38015024	      9.85053249	      0.00000000	      0.00000000	     88.56387979	    -12.26889355	      2.08949600	    114.00006604	      1.98967650	      8.60994743	      1.59886783	      0.00000000	      0.00000000	    -59.51466011	     -5.13203059	     -1.33346580	     89.48016924	    -25.87441032	     49.90958134	     51.78139210	     25.73404355	      0.00000000	      0.00000000	     89.77721761	    -20.45141844	     46.50745339	     55.61761495	     24.34992949	      0.00000000	      0.00000000
      5.02500000	    -11.83927935	      0.20834650	      2.30417582	      0.12183370	      1.15914718	     -0.22639403	      0.00000000	      0.50000000	      0.00000000	      0.25000000	     40.80533040	     -9.67712086	    -13.76698502	     38.51184796	      0.67215855	     -5.75431807	      9.71263927	      0.00000000	      0.00000000	     89.03879396	    -11.86701700	      2.22874156	    113.74255555	      1.98518209	      9.60649765	      1.72079879	      0.00000000	      0.00000000	    -59.70605179	     -5.36073075	     -1.44140457	     89.48843606	    -25.89188786	     49.87056624	     51.53079776	     25.72482126	      0.00000000	      0.00000000	     89.78084843	    -20.19450857	     46.20538129	     55.85061620	     24.35806861	      0.00000000	      0.00000000
      5.03000000	    -11.79917168	      0.10061347	      2.40017852	      0.12151573	      1.15989261	     -0.22547371	      0.00000000	      0.50000000	      0.00000000	      0.25000000	     40.53280707	     -9.69362450	    -13.90293448	     39.17940603	      0.68380963	     -6.00064645	      9.58530391	      0.00000000	      0.00000000	     89.50634685	    -11.54604679	      2.41503299	    113.39884538	      1.97918322	     10.55190339	      1.74679808	      0.00000000	      0.00000000	    -59.82994202	     -5.59474161	     -1.47831030	     89.51116594	    -25.87341762	     49.81644134	     51.37830798	     25.72213297	      0.00000000	      0.00000000	     89.78391094	    -19.99078911	     45.94899525	     56.00395534	     24.35677460	      0.00000000	      0.00000000
      5.03500000	    -11.85141568	     -0.00183996	      2.57406989	      0.12104838	      1.16059174	     -0.22448390	      0.00000000	      0.50000000	      0.00000000	      0.25000000	     40.46951055	     -9.74980746	    -13.99958180	     40.04939641	      0.69899383	     -6.16319600	      9.23005852	      0.00000000	      0.00000000	     89.95758315	    -11.21419408	      2.50326163	    112.84820817	      1.96957279	     11.56164523	      1.71637050	      0.00000000	      0.00000000	    -59.91527700	     -5.82735528	     -1.50530266	     89.52291138	    -25.97895094	     49.69636917	     51.16401813	     25.71423505	      0.00000000	      0.00000000	     89.78520377	    -19.67454552	     45.55993391	     56.24541866	     24.35623747	      0.00000000	      0.00000000
      5.04000000	    -11.92085442	     -0.11285127	      2.74079022	      0.12044352	      1.16130803	     -0.22346123	      0.00000000	      0.50000000	      0.00000000	      0.25000000	     40.53030333	     -9.75797314	    -13.94346090	     41.06517703	      0.71672255	     -6.29215210	      8.74751822	      0.00000000	      0.00000000	     90.32135738	    -10.88185291	      2.58726626	    112.15105530	      1.95740517	     12.40963566	      1.65641284	      0.00000000	      0.00000000	    -59.96951086	     -6.05102859	     -1.47927776	     89.53214379	    -26.08094332	     49.58257590	     51.02211171	     25.71117979	      0.00000000	      0.00000000	     89.79069342	    -19.35371577	     45.23027113	     56.47038681	     24.35851756	      0.00000000	      0.00000000
      5.04500000	    -12.29806889	     -0.04826240	      2.80360223	      0.11965115	      1.16152883	     -0.22234365	      0.00000000	      0.50000000	      0.00000000	      0.25000000	     41.15063222	     -9.84495130	    -13.50699753	     42.35936772	      0.73931044	     -6.39177662	      8.03057879	      0.00000000	      0.00000000	     90.82462692	    -10.62577139	      2.45241176	    111.25678860	      1.94179728	     13.16815177	      1.79103532	      0.00000000	      0.00000000	    -59.77705215	     -6.57387877	     -1.51185423	     89.53459009	    -26.48285402	     49.26741924	     50.84974246	     25.75370188	      0.00000000	      0.00000000	     89.78855967	    -18.60343353	     44.40649465	     56.73741493	     24.28818391	      0.00000000	      0.00000000
      5.05000000	    -12.54566094	     -0.14421811	      2.87269502	      0.11877013	      1.16195704	     -0.22129308	      0.00000000	      0.50000000	      0.00000000	      0.25000000	     41.68678029	     -9.76992418	    -13.17069427	     43.72166599	      0.76308703	     -6.60612475	      7.10309179	      0.00000000	      0.00000000	     91.14779976	    -10.45170525	      2.45398893	    110.26507935	      1.92448868	     13.95914705	      1.92260507	      0.00000000	      0.00000000	    -59.69996976	     -6.92644571	     -1.16437580	     89.53107021	    -27.27421550	     49.00923108	     51.17995272	     26.12536616	      0.00000000	      0.00000000	     89.79098100	    -17.34728472	     43.37245729	     56.41627564	     23.88036034	      0.00000000	      0.00000000
      5.05500000	    -12.66360505	     -0.27774507	      3.03574297	      0.11789938	      1.16249316	     -0.22058410	      0.00000000	      0.50000000	      0.00000000	      0.25000000	     42.17384132	     -9.78929287	    -13.02053132	     45.27815325	      0.79025285	     -6.70321981	      6.36816451	      0.00000000	      0.00000000	     91.21842784	    -10.18481793	      2.47568541	    109.15126737	      1.90504900	     14.77364959	      2.09580837	      0.00000000	      0.00000000	    -59.70731407	     -7.04847113	     -1.11794878	     89.54642864	    -27.45209857	     48.89932048	     51.12850409	     26.13760321	      0.00000000	      0.00000000	     89.79497623	    -17.12250028	     43.28908323	     56.61780148	     23.88610389	      0.00000000	      0.00000000
      5.06000000	    -13.13886402	     -0.20707337	      3.11120743	      0.11686011	      1.16256360	     -0.21966513	      0.00000000	      0.50000000	      0.00000000	      0.25000000	     43.21855622	     -9.86516159	    -12.45279699	     46.96198921	      0.81964133	     -6.95853504	      5.19052166	      0.00000000	      0.00000000	     91.42707186	     -9.99224826	      2.25894844	    107.79393635	      1.88135910	     15.59815536	      2.59170319	      0.00000000	      0.00000000	    -59.43210528	     -7.46036361	     -1.17237457	     89.54669187	    -27.84704612	     48.66859349	     51.14446625	     26.18877271	      0.00000000	      0.00000000	     89.79728238	    -16.65377872	     42.97798357	     56.90981991	     23.85903477	      0.00000000	      0.00000000
      5.06500000	    -13.41213157	     -0.29181609	      3.19448453	      0.11589067	      1.16274757	     -0.21882563	      0.00000000	      0.50000000	      0.00000000	      0.25000000	     44.10699850	     -9.83016901	    -12.02896659	     48.77073462	      0.85120990	     -7.11491846	      4.12269903	      0.00000000	      0.00000000	     91.36244745	     -9.87427277	      2.18068839	    106.35537805	      1.85625152	     16.41492193	      3.01965479	      0.00000000	      0.00000000	    -59.30013861	     -7.68633480	     -1.08090567	     89.55023773	    -28.19018733	     48.49518161	     51.15724193	     26.23331295	      0.00000000	      0.00000000	     89.79827828	    -16.25042493	     42.69510708	     57.09627078	     23.82072772	      0.00000000	      0.00000000
      5.07000000	    -13.42714516	     -0.60508713	      3.25591784	      0.11516876	      1.16294181	     -0.21830991	      0.00000000	      0.50000000	      0.00000000	      0.25000000	     44.72982268	     -9.63626416	    -11.82175860	     50.63584324	      0.88376218	     -7.25074670	      3.46411941	      0.00000000	      0.00000000	     91.02371645	     -9.81939602	      2.28771192	    104.93819505	      1.83151701	     17.18026428	      3.14994091	      0.00000000	      0.00000000	    -59.32586730	     -7.59673133	     -0.77576653	     89.57509840	    -28.28550395	     48.43534075	     51.18411388	     26.24851638	      0.00000000	      0.00000000	     89.79708332	    -16.11633585	     42.56079588	     57.19808262	     23.80796964	      0.00000000	      0.00000000
